<svg xmlns="http://www.w3.org/2000/svg" viewBox="0 0 30.19 44.03" style=" animation: fade 1s infinite"><path fill="currentColor" d="M25.51,13.79a1.27,1.27,0,0,0,1.8,0l2.5-2.6a1.36,1.36,0,0,0-.06-1.94A19.75,19.75,0,0,0,23,5.41l.79-3.8A1.33,1.33,0,0,0,22.54,0H17.7a1.32,1.32,0,0,0-1.28,1.06l-.7,3.38C9.28,4.77,3.82,8,3.82,14.74c0,5.8,4.51,8.29,9.28,10,4.51,1.72,6.9,2.36,6.9,4.78s-2.38,3.95-5.9,3.95a12.76,12.76,0,0,1-9.16-3.68,1.3,1.3,0,0,0-1.84,0h0L.4,32.49a1.36,1.36,0,0,0,0,1.92,17.64,17.64,0,0,0,7.79,4.4l-.74,3.57A1.33,1.33,0,0,0,8.72,44l4.85,0A1.33,1.33,0,0,0,14.87,43l.7-3.39c7.75-.52,12.47-4.79,12.47-11,0-5.74-4.7-8.16-10.4-10.13-3.26-1.21-6.08-2-6.08-4.53s2.63-3.38,5.27-3.38a13.39,13.39,0,0,1,8.7,3.29Z"></path></svg>