<svg xmlns="http://www.w3.org/2000/svg" viewBox="0 0 40 40"><path d="M9 0h22a9 9 0 0 1 9 9v22a9 9 0 0 1-9 9H9a9 9 0 0 1-9-9V9a9 9 0 0 1 9-9zm12.305 13.743c1.865 0 3.653.755 4.821 1.792a.734.734 0 0 0 1.015-.02l1.39-1.41a.725.725 0 0 0-.034-1.056 10.989 10.989 0 0 0-3.726-2.095l.436-2.076A.728.728 0 0 0 24.494 8h-2.686c-.343 0-.64.24-.712.576l-.392 1.846c-3.57.179-6.597 1.96-6.597 5.616 0 3.164 2.504 4.52 5.146 5.46 2.504.938 3.825 1.286 3.825 2.607 0 1.357-1.32 2.156-3.269 2.156-1.775 0-3.635-.586-5.079-2.009a.725.725 0 0 0-1.019-.002l-1.493 1.473a.732.732 0 0 0 .004 1.047c1.165 1.13 2.64 1.948 4.322 2.407l-.41 1.923a.729.729 0 0 0 .707.88l2.69.02a.727.727 0 0 0 .718-.578l.388-1.85c4.276-.263 6.892-2.587 6.892-5.988 0-3.13-2.607-4.451-5.772-5.529-1.808-.661-3.373-1.113-3.373-2.469 0-1.32 1.46-1.843 2.92-1.843z" fill-rule="nonzero"/></svg>
